<mxfile host="app.diagrams.net" agent="Mozilla/5.0 (Windows NT 10.0; Win64; x64) AppleWebKit/537.36 (KHTML, like Gecko) Chrome/135.0.0.0 Safari/537.36" version="26.3.0">
  <diagram id="R2lEEEUBdFMjLlhIrx00" name="Page-1">
    <mxGraphModel dx="1048" dy="1656" grid="1" gridSize="10" guides="1" tooltips="1" connect="1" arrows="1" fold="1" page="1" pageScale="1" pageWidth="850" pageHeight="1100" math="0" shadow="0" extFonts="Permanent Marker^https://fonts.googleapis.com/css?family=Permanent+Marker">
      <root>
        <mxCell id="0" />
        <mxCell id="1" parent="0" />
        <mxCell id="gIBhTJ-z5Mq94y2pDYBU-11" style="edgeStyle=orthogonalEdgeStyle;rounded=0;orthogonalLoop=1;jettySize=auto;html=1;exitX=1;exitY=0.5;exitDx=0;exitDy=0;entryX=0;entryY=0.5;entryDx=0;entryDy=0;" edge="1" parent="1" source="gIBhTJ-z5Mq94y2pDYBU-1" target="gIBhTJ-z5Mq94y2pDYBU-3">
          <mxGeometry relative="1" as="geometry">
            <Array as="points">
              <mxPoint x="295" y="250" />
              <mxPoint x="477" y="250" />
              <mxPoint x="477" y="110" />
            </Array>
          </mxGeometry>
        </mxCell>
        <mxCell id="gIBhTJ-z5Mq94y2pDYBU-31" value="User → TaskComment" style="edgeLabel;html=1;align=center;verticalAlign=middle;resizable=0;points=[];fontStyle=1" vertex="1" connectable="0" parent="gIBhTJ-z5Mq94y2pDYBU-11">
          <mxGeometry x="0.0008" y="4" relative="1" as="geometry">
            <mxPoint x="-53" y="91" as="offset" />
          </mxGeometry>
        </mxCell>
        <mxCell id="gIBhTJ-z5Mq94y2pDYBU-32" value="User → Tasks" style="edgeLabel;html=1;align=center;verticalAlign=middle;resizable=0;points=[];" vertex="1" connectable="0" parent="gIBhTJ-z5Mq94y2pDYBU-11">
          <mxGeometry x="0.0211" y="-2" relative="1" as="geometry">
            <mxPoint x="71" y="-94" as="offset" />
          </mxGeometry>
        </mxCell>
        <mxCell id="gIBhTJ-z5Mq94y2pDYBU-19" style="edgeStyle=orthogonalEdgeStyle;rounded=0;orthogonalLoop=1;jettySize=auto;html=1;exitX=1;exitY=0.5;exitDx=0;exitDy=0;" edge="1" parent="1" source="gIBhTJ-z5Mq94y2pDYBU-1">
          <mxGeometry relative="1" as="geometry">
            <mxPoint x="500" y="380" as="targetPoint" />
          </mxGeometry>
        </mxCell>
        <mxCell id="gIBhTJ-z5Mq94y2pDYBU-1" value="User&lt;br&gt;---------&lt;b&gt;&lt;br&gt;UserId (PK)&lt;/b&gt;&lt;br&gt;Username&lt;br&gt;Email&lt;br&gt;PasswordHash&lt;br&gt;Role&lt;br&gt;CreatedAt&lt;br&gt;- [1] Tasks&lt;br&gt;- [1] TaskComments" style="rounded=0;whiteSpace=wrap;html=1;fillColor=#0050ef;fontColor=#ffffff;strokeColor=#001DBC;" vertex="1" parent="1">
          <mxGeometry x="80" y="190" width="215" height="160" as="geometry" />
        </mxCell>
        <mxCell id="gIBhTJ-z5Mq94y2pDYBU-10" value="" style="edgeStyle=orthogonalEdgeStyle;rounded=0;orthogonalLoop=1;jettySize=auto;html=1;exitX=0.5;exitY=1;exitDx=0;exitDy=0;" edge="1" parent="1" source="gIBhTJ-z5Mq94y2pDYBU-3" target="gIBhTJ-z5Mq94y2pDYBU-4">
          <mxGeometry relative="1" as="geometry" />
        </mxCell>
        <mxCell id="gIBhTJ-z5Mq94y2pDYBU-28" value="Tasks → TaskComment" style="edgeLabel;html=1;align=center;verticalAlign=middle;resizable=0;points=[];fontStyle=1" vertex="1" connectable="0" parent="gIBhTJ-z5Mq94y2pDYBU-10">
          <mxGeometry x="-0.2773" y="-1" relative="1" as="geometry">
            <mxPoint y="6" as="offset" />
          </mxGeometry>
        </mxCell>
        <mxCell id="gIBhTJ-z5Mq94y2pDYBU-25" style="edgeStyle=orthogonalEdgeStyle;rounded=0;orthogonalLoop=1;jettySize=auto;html=1;exitX=0.5;exitY=0;exitDx=0;exitDy=0;" edge="1" parent="1" source="gIBhTJ-z5Mq94y2pDYBU-3">
          <mxGeometry relative="1" as="geometry">
            <mxPoint x="734.6666666666667" y="10" as="targetPoint" />
          </mxGeometry>
        </mxCell>
        <mxCell id="gIBhTJ-z5Mq94y2pDYBU-3" value="Tasks&lt;br&gt;---------&lt;br&gt;&lt;b&gt;TaskId (PK)&lt;/b&gt;&lt;br&gt;Title&lt;br&gt;Description&lt;br&gt;AssignedUserId (FK)&lt;br&gt;Status&lt;br&gt;DueDate&lt;br&gt;CreatedAt&lt;br&gt;UpdatedAt&lt;br&gt;- [*] TaskComments" style="rounded=0;whiteSpace=wrap;html=1;fillColor=#0050ef;fontColor=#ffffff;strokeColor=#001DBC;" vertex="1" parent="1">
          <mxGeometry x="660" y="-10" width="150" height="240" as="geometry" />
        </mxCell>
        <mxCell id="gIBhTJ-z5Mq94y2pDYBU-4" value="TaskComment&lt;br&gt;-------------&lt;br&gt;&lt;b&gt;CommentId (PK)&lt;/b&gt;&lt;br&gt;TaskId (FK)&lt;br&gt;UserId (FK)&lt;br&gt;Comment&lt;br&gt;CreatedAt" style="rounded=0;whiteSpace=wrap;html=1;fillColor=#0050ef;fontColor=#ffffff;strokeColor=#001DBC;" vertex="1" parent="1">
          <mxGeometry x="460" y="380" width="120" height="120" as="geometry" />
        </mxCell>
        <mxCell id="gIBhTJ-z5Mq94y2pDYBU-24" value="" style="endArrow=none;dashed=1;html=1;dashPattern=1 3;strokeWidth=2;rounded=0;edgeStyle=orthogonalEdgeStyle;entryX=0;entryY=0;entryDx=0;entryDy=0;exitX=0.5;exitY=0;exitDx=0;exitDy=0;" edge="1" parent="1">
          <mxGeometry width="50" height="50" relative="1" as="geometry">
            <mxPoint x="184.03" y="180" as="sourcePoint" />
            <mxPoint x="656.53" y="-20" as="targetPoint" />
            <Array as="points">
              <mxPoint x="183.53" y="20" />
              <mxPoint x="666.53" y="20" />
              <mxPoint x="666.53" y="-20" />
            </Array>
          </mxGeometry>
        </mxCell>
        <mxCell id="gIBhTJ-z5Mq94y2pDYBU-26" value="&lt;div&gt;FK&lt;/div&gt;Tasks.AssignedUserId → User.UserId" style="text;html=1;align=center;verticalAlign=middle;resizable=0;points=[];autosize=1;strokeColor=none;fillColor=none;fontStyle=1" vertex="1" parent="1">
          <mxGeometry x="260" y="-20" width="220" height="40" as="geometry" />
        </mxCell>
      </root>
    </mxGraphModel>
  </diagram>
</mxfile>
